<svg xmlns="http://www.w3.org/2000/svg" xmlns:xlink="http://www.w3.org/1999/xlink" width="120" height="120" version="1.1" viewBox="0 0 120 120"><title>Mask Copy</title><desc>Created with Sketch.</desc><g id="Page-1" fill="none" fill-rule="evenodd" stroke="none" stroke-width="1"><g id="z" fill="#000"><polygon id="Mask-Copy" points="120 63.607 120 64.087 119.996 67.45 119.996 67.93 119.996 71.3 119.996 71.773 119.985 75.155 119.985 75.608 119.961 79.025 119.954 79.424 119.899 82.93 119.779 86.893 119.756 87.408 119.578 90.585 119.551 90.968 119.268 94.118 119.21 94.606 119.136 95.226 118.807 97.504 118.64 98.453 118.361 99.844 118.164 100.708 117.745 102.3 117.308 103.698 116.688 105.356 116.351 106.143 115.901 107.088 114.855 108.944 114.143 109.99 113.221 111.16 112.047 112.415 111.307 113.097 110.404 113.833 109.106 114.747 108.192 115.309 106.635 116.126 105.306 116.711 104.338 117.083 103.896 117.242 102.525 117.679 100.917 118.113 100.479 118.218 99.786 118.373 97.721 118.772 96.624 118.942 95.156 119.144 94.339 119.241 92.77 119.403 90.887 119.558 88.915 119.682 87.153 119.768 85.061 119.845 83.418 119.888 82.829 119.903 81.206 119.93 79.629 119.954 78.917 119.961 77.348 119.973 75.802 119.985 75.035 119.985 73.493 119.992 71.959 119.996 71.173 119.996 69.638 119.996 68.108 119.996 67.314 119.996 65.784 119.996 64.254 120 63.459 120 61.929 119.996 60.399 120 59.601 120 58.071 119.996 56.541 120 55.746 120 54.216 119.996 52.686 119.996 51.892 119.996 50.362 119.996 48.827 119.996 48.041 119.996 46.507 119.992 44.965 119.985 44.198 119.985 42.652 119.973 41.083 119.961 40.371 119.954 38.798 119.93 37.171 119.903 36.582 119.888 34.939 119.845 33.196 119.783 31.085 119.682 29.194 119.562 27.23 119.403 25.661 119.241 24.844 119.144 23.376 118.942 22.279 118.772 20.218 118.373 19.521 118.218 19.083 118.113 17.475 117.679 16.104 117.242 15.662 117.083 14.694 116.711 13.365 116.126 11.808 115.309 10.894 114.747 9.596 113.833 8.693 113.097 7.953 112.415 6.779 111.16 5.857 109.99 5.145 108.944 4.099 107.088 3.789 106.453 3.312 105.356 2.692 103.698 2.255 102.3 1.836 100.708 1.639 99.844 1.36 98.453 1.193 97.504 .864 95.226 .79 94.606 .732 94.118 .449 90.968 .422 90.585 .244 87.408 .221 86.936 .105 83.209 .046 79.424 .039 79.025 .015 75.608 .015 75.155 .004 71.773 .004 71.3 .004 67.93 .004 67.45 0 64.087 0 63.607 0 60.24 0 59.76 0 56.393 0 55.913 .004 52.55 .004 52.07 .004 48.7 .004 48.227 .015 44.845 .015 44.392 .039 40.975 .046 40.576 .101 37.07 .221 33.107 .244 32.592 .422 29.415 .449 29.032 .732 25.882 .79 25.394 .864 24.774 1.193 22.496 1.36 21.547 1.639 20.156 1.836 19.292 2.255 17.7 2.692 16.302 3.312 14.644 3.649 13.857 4.099 12.912 5.145 11.056 5.857 10.01 6.779 8.84 7.953 7.585 8.693 6.903 9.596 6.167 10.894 5.253 11.808 4.691 13.365 3.874 14.694 3.289 15.662 2.917 16.104 2.758 17.475 2.321 19.083 1.887 19.521 1.782 20.218 1.627 22.279 1.228 23.376 1.058 24.844 .856 25.661 .759 27.23 .597 29.113 .442 31.085 .318 32.847 .232 34.939 .155 36.582 .112 37.171 .097 38.798 .07 40.371 .046 41.083 .039 42.652 .027 44.198 .015 44.965 .015 46.507 .008 48.041 .004 48.827 .004 50.362 .004 51.892 .004 52.686 .004 54.216 .004 55.746 0 56.541 0 58.071 .004 59.601 0 60.399 0 61.929 .004 63.459 0 64.254 0 65.784 .004 67.314 .004 68.108 .004 69.638 .004 71.173 .004 71.959 .004 73.493 .008 75.035 .015 75.802 .015 77.348 .027 78.917 .039 79.629 .046 81.206 .07 82.829 .097 83.418 .112 85.061 .155 86.804 .217 88.915 .318 90.806 .438 92.77 .597 94.339 .759 95.156 .856 96.624 1.058 97.721 1.228 99.786 1.627 100.479 1.782 100.917 1.887 102.525 2.321 103.896 2.758 104.338 2.917 105.306 3.289 106.635 3.874 108.192 4.691 109.106 5.253 110.404 6.167 111.307 6.903 112.047 7.585 113.221 8.84 114.143 10.01 114.855 11.056 115.901 12.912 116.211 13.547 116.688 14.644 117.308 16.302 117.745 17.7 118.164 19.292 118.361 20.156 118.64 21.547 118.807 22.496 119.136 24.774 119.21 25.394 119.268 25.882 119.551 29.032 119.578 29.415 119.756 32.592 119.779 33.064 119.895 36.791 119.954 40.576 119.961 40.975 119.985 44.392 119.985 44.845 119.996 48.227 119.996 48.7 119.996 52.07 119.996 52.55 120 55.913 120 56.393 120 59.76"/></g></g></svg>